# xmcd
#
# Track frame offsets: 
#        150
#        16272
#        34342
#        52431
#        76629
#        90039
#        105925
#        124546
#        151918
#        165070
#        181287
#        194255
#        212581
#        236793
#        257868
#        273485
#        294325
#
# Disc length: 4263 seconds
#
# Revision: 1
# Processed by: cddbd v1.5.2PL0 Copyright (c) Steve Scherf et al.
# Submitted via: ExactAudioCopyFreeDBPlugin 1.0
#
DISCID=d210a511
DTITLE=Various Artist - Famous 6
DYEAR=2007
DGENRE=Jazz
TTITLE0=Amy Winehouse - Rehab
TTITLE1=Molly Johnson - Rain
TTITLE2=Vienna Teng - Whatever You Want
TTITLE3=Lizz Wright - Hey Mann
TTITLE4=Anna Ternheim - Girl Laying Down
TTITLE5=Kristin Asbjornsen - Ride Up In The Chariot
TTITLE6=Nylon - So weit, so weit
TTITLE7=Till Brönner feat. Kim Sanders and Don Grusin - Nature Boy
TTITLE8=Rebekka Bakken - We Hit It Again
TTITLE9=Sonya Kitchell - Let Me Go
TTITLE10=Chiara Civello - Night
TTITLE11=Randy Crawford feat. Joe Sample - Feeling Good
TTITLE12=Silje Nergaard - Darkness Out Of Blue
TTITLE13=Queen Latifah - Poetry Man
TTITLE14=Madeleine Peyroux - I´m All Right
TTITLE15=Luciana Souza feat. James Taylor - Never Die Young
TTITLE16=Natalie Cole - If I Ever Loose My Faith
EXTD=YEAR: 2007
EXTT0=
EXTT1=
EXTT2=
EXTT3=
EXTT4=
EXTT5=
EXTT6=
EXTT7=
EXTT8=
EXTT9=
EXTT10=
EXTT11=
EXTT12=
EXTT13=
EXTT14=
EXTT15=
EXTT16=
PLAYORDER=
